<?xml version="1.0" encoding="UTF-8"?>
<svg width="460" height="360" viewBox="0 0 460 360" fill="none" xmlns="http://www.w3.org/2000/svg" role="img" aria-label="Coding illustration (animated)">
  <defs>
    <linearGradient id="bg" x1="0" y1="0" x2="460" y2="360" gradientUnits="userSpaceOnUse">
      <stop stop-color="#050713"/>
      <stop offset="0.55" stop-color="#0B1020"/>
      <stop offset="1" stop-color="#102A43"/>
    </linearGradient>
    <linearGradient id="accent" x1="0" y1="0" x2="1" y2="1">
      <stop stop-color="#22D3EE"/>
      <stop offset="0.55" stop-color="#7C3AED"/>
      <stop offset="1" stop-color="#A78BFA"/>
    </linearGradient>
    <linearGradient id="accent2" x1="1" y1="0" x2="0" y2="1">
      <stop stop-color="#22D3EE"/>
      <stop offset="1" stop-color="#7C3AED"/>
    </linearGradient>
    <filter id="softShadow" x="-20%" y="-20%" width="140%" height="140%">
      <feDropShadow dx="0" dy="12" stdDeviation="14" flood-color="#000" flood-opacity="0.42"/>
    </filter>
    <filter id="glow" x="-30%" y="-30%" width="160%" height="160%">
      <feGaussianBlur stdDeviation="18" result="b"/>
      <feColorMatrix in="b" type="matrix" values="1 0 0 0 0  0 1 0 0 0  0 0 1 0 0  0 0 0 0.26 0" result="g"/>
      <feMerge>
        <feMergeNode in="g"/>
        <feMergeNode in="SourceGraphic"/>
      </feMerge>
    </filter>
    <pattern id="dots" width="18" height="18" patternUnits="userSpaceOnUse">
      <circle cx="2" cy="2" r="1" fill="#E5E7EB" opacity="0.10"/>
    </pattern>
  </defs>

  <!-- outer card -->
  <rect x="18" y="18" width="424" height="324" rx="26" fill="url(#bg)" filter="url(#softShadow)"/>
  <rect x="18" y="18" width="424" height="324" rx="26" fill="url(#dots)"/>

  <!-- diagonal glow sweep (animated drift) -->
  <g filter="url(#glow)">
    <g>
      <path d="M-40 330 C110 220, 210 380, 315 275 C385 205, 420 238, 520 140" stroke="url(#accent)" stroke-width="54" stroke-linecap="round" opacity="0.14"/>
      <animateTransform attributeName="transform" type="translate" values="0 0; 16 -10; 0 0" dur="6s" repeatCount="indefinite"/>
    </g>
    <g>
      <path d="M-55 342 C105 235, 215 405, 330 295 C402 225, 438 258, 540 165" stroke="url(#accent2)" stroke-width="28" stroke-linecap="round" opacity="0.16"/>
      <animateTransform attributeName="transform" type="translate" values="0 0; 10 -6; 0 0" dur="6s" repeatCount="indefinite"/>
    </g>
  </g>

  <!-- left info card -->
  <g filter="url(#softShadow)">
    <rect x="42" y="56" width="244" height="248" rx="20" fill="rgba(255,255,255,0.05)" stroke="rgba(255,255,255,0.12)"/>

    <text x="64" y="102" fill="#F9FAFB" font-family="Segoe UI, Inter, system-ui, -apple-system, Arial" font-size="20" font-weight="800">Building APIs</text>
    <text x="64" y="128" fill="#D1D5DB" font-family="Segoe UI, Inter, system-ui, -apple-system, Arial" font-size="13" font-weight="600">.NET • Microservices • Data</text>

    <!-- chips -->
    <g font-family="Segoe UI, Inter, system-ui, -apple-system, Arial" font-size="11" font-weight="800" letter-spacing="0.2" opacity="0.95">
      <rect x="64" y="146" width="58" height="22" rx="11" fill="rgba(34,211,238,0.16)" stroke="rgba(110,231,245,0.26)"/>
      <text x="80" y="161" fill="#ECFEFF">.NET</text>

      <rect x="126" y="146" width="54" height="22" rx="11" fill="rgba(124,58,237,0.16)" stroke="rgba(167,139,250,0.26)"/>
      <text x="141" y="161" fill="#F5F3FF">SQL</text>

      <rect x="184" y="146" width="54" height="22" rx="11" fill="rgba(255,255,255,0.08)" stroke="rgba(255,255,255,0.14)"/>
      <text x="198" y="161" fill="#E5E7EB">AWS</text>
    </g>

    <!-- metrics (subtle pulse) -->
    <g font-family="Segoe UI, Inter, system-ui, -apple-system, Arial" font-size="12" font-weight="700" fill="#E5E7EB" opacity="0.92">
      <text x="64" y="196">40% fewer crashes</text>
      <text x="64" y="218" fill="#9CA3AF">Payroll</text>
      <text x="115" y="218" fill="#10B981">-7 days</text>
      <text x="64" y="240" fill="#9CA3AF">SQL</text>
      <text x="92" y="240" fill="#22D3EE">minutes</text>
      <text x="142" y="240" fill="#9CA3AF">→</text>
      <text x="155" y="240" fill="#10B981">seconds</text>
      <animate attributeName="opacity" values="0.86;0.98;0.86" dur="4.2s" repeatCount="indefinite"/>
    </g>

    <path d="M64 266H264" stroke="#E5E7EB" stroke-opacity="0.10"/>

    <!-- mini architecture diagram -->
    <g opacity="0.95">
      <rect x="64" y="278" width="54" height="20" rx="10" fill="rgba(255,255,255,0.07)" stroke="rgba(255,255,255,0.12)"/>
      <text x="78" y="292" fill="#E5E7EB" font-family="Segoe UI, Inter, system-ui, -apple-system, Arial" font-size="10" font-weight="800">API</text>

      <rect x="128" y="278" width="78" height="20" rx="10" fill="rgba(124,58,237,0.16)" stroke="rgba(167,139,250,0.22)"/>
      <text x="145" y="292" fill="#F5F3FF" font-family="Segoe UI, Inter, system-ui, -apple-system, Arial" font-size="10" font-weight="800">Service</text>

      <rect x="216" y="278" width="48" height="20" rx="10" fill="rgba(34,211,238,0.16)" stroke="rgba(110,231,245,0.22)"/>
      <text x="226" y="292" fill="#ECFEFF" font-family="Segoe UI, Inter, system-ui, -apple-system, Arial" font-size="10" font-weight="800">DB</text>

      <path d="M118 288H128" stroke="url(#accent2)" stroke-width="2" stroke-linecap="round"/>
      <path d="M206 288H216" stroke="url(#accent2)" stroke-width="2" stroke-linecap="round"/>
    </g>
  </g>

  <!-- right terminal panel -->
  <g filter="url(#softShadow)">
    <rect x="300" y="74" width="126" height="230" rx="18" fill="rgba(255,255,255,0.04)" stroke="rgba(255,255,255,0.10)"/>
    <rect x="300" y="74" width="126" height="40" rx="18" fill="rgba(255,255,255,0.06)"/>

    <circle cx="320" cy="94" r="5" fill="#EF4444"/>
    <circle cx="336" cy="94" r="5" fill="#F59E0B"/>
    <circle cx="352" cy="94" r="5" fill="#10B981"/>

    <g font-family="Consolas, ui-monospace, SFMono-Regular, Menlo, Monaco, monospace" font-size="11" opacity="0.95">
      <text x="316" y="142" fill="#A5B4FC">$</text>
      <text x="330" y="142" fill="#E5E7EB">dotnet</text>
      <text x="330" y="160" fill="#22D3EE">build</text>
      <text x="316" y="184" fill="#10B981">✔</text>
      <text x="330" y="184" fill="#E5E7EB">OK</text>

      <text x="316" y="210" fill="#A5B4FC">$</text>
      <text x="330" y="210" fill="#E5E7EB">sql</text>
      <text x="356" y="210" fill="#22D3EE">tune</text>

      <text x="316" y="236" fill="#22D3EE">→</text>
      <text x="330" y="236" fill="#E5E7EB">minutes</text>
      <text x="330" y="254" fill="#10B981">seconds</text>
    </g>

    <!-- cursor blink -->
    <rect x="392" y="206" width="6" height="14" rx="2" fill="#22D3EE" opacity="0.55">
      <animate attributeName="opacity" values="0;0.65;0" dur="1.1s" repeatCount="indefinite"/>
    </rect>

    <!-- tiny brackets at bottom (pulse) -->
    <g opacity="0.9">
      <path d="M396 280L378 288L396 296" stroke="url(#accent2)" stroke-width="5" stroke-linecap="round" stroke-linejoin="round"/>
      <path d="M412 280L430 288L412 296" stroke="url(#accent2)" stroke-width="5" stroke-linecap="round" stroke-linejoin="round"/>
      <path d="M404 298L410 276" stroke="#E5E7EB" stroke-opacity="0.55" stroke-width="5" stroke-linecap="round"/>
      <animate attributeName="opacity" values="0.65;0.95;0.65" dur="2.8s" repeatCount="indefinite"/>
    </g>
  </g>
</svg>
