<?xml version="1.0" encoding="UTF-8"?>
<svg width="1200" height="360" viewBox="0 0 1200 360" fill="none" xmlns="http://www.w3.org/2000/svg" role="img" aria-label="Hang Kheang Taing — Software Engineer header (animated)">
  <defs>
    <linearGradient id="bg" x1="0" y1="0" x2="1200" y2="360" gradientUnits="userSpaceOnUse" gradientTransform="translate(0 0)">
      <stop stop-color="#050713"/>
      <stop offset="0.55" stop-color="#0B1020"/>
      <stop offset="1" stop-color="#102A43"/>
      <animateTransform attributeName="gradientTransform" type="translate" values="0 0; -80 40; 0 0" dur="18s" repeatCount="indefinite"/>
    </linearGradient>
    <linearGradient id="accent" x1="0" y1="0" x2="1" y2="1">
      <stop stop-color="#22D3EE"/>
      <stop offset="0.55" stop-color="#7C3AED"/>
      <stop offset="1" stop-color="#A78BFA"/>
    </linearGradient>
    <linearGradient id="accent2" x1="1" y1="0" x2="0" y2="1">
      <stop stop-color="#22D3EE"/>
      <stop offset="1" stop-color="#7C3AED"/>
    </linearGradient>
    <filter id="softShadow" x="-20%" y="-20%" width="140%" height="140%">
      <feDropShadow dx="0" dy="14" stdDeviation="16" flood-color="#000" flood-opacity="0.42"/>
    </filter>
    <filter id="glow" x="-30%" y="-30%" width="160%" height="160%">
      <feGaussianBlur stdDeviation="22" result="b"/>
      <feColorMatrix in="b" type="matrix" values="1 0 0 0 0  0 1 0 0 0  0 0 1 0 0  0 0 0 0.28 0" result="g"/>
      <feMerge>
        <feMergeNode in="g"/>
        <feMergeNode in="SourceGraphic"/>
      </feMerge>
    </filter>
    <pattern id="dots" width="22" height="22" patternUnits="userSpaceOnUse" patternTransform="translate(0 0)">
      <circle cx="2" cy="2" r="1.2" fill="#E5E7EB" opacity="0.10"/>
      <animateTransform attributeName="patternTransform" type="translate" values="0 0; 22 0; 0 0" dur="14s" repeatCount="indefinite"/>
    </pattern>
  </defs>

  <rect width="1200" height="360" rx="28" fill="url(#bg)"/>
  <rect width="1200" height="360" rx="28" fill="url(#dots)"/>

  <!-- diagonal accent sweep -->
  <g filter="url(#glow)">
    <animateTransform attributeName="transform" type="translate" values="0 0; 26 -14; 0 0" dur="7s" repeatCount="indefinite"/>
    <path d="M-60 320 C260 120, 520 460, 760 220 C930 50, 1070 120, 1260 -30" stroke="url(#accent)" stroke-width="70" stroke-linecap="round" opacity="0.14"/>
    <path d="M-80 340 C250 140, 530 480, 780 250 C950 75, 1090 150, 1280 -10" stroke="url(#accent2)" stroke-width="36" stroke-linecap="round" opacity="0.16"/>
  </g>

  <!-- left content card -->
  <g filter="url(#softShadow)">
    <rect x="64" y="62" width="640" height="236" rx="22" fill="rgba(255,255,255,0.05)" stroke="rgba(255,255,255,0.12)"/>

    <text x="96" y="128" fill="#F9FAFB" font-family="Segoe UI, Inter, system-ui, -apple-system, Arial" font-size="46" font-weight="800" letter-spacing="0.2">Hang Kheang Taing</text>
    <text x="96" y="174" fill="#D1D5DB" font-family="Segoe UI, Inter, system-ui, -apple-system, Arial" font-size="20" font-weight="600">Software Engineer • .NET / C# • Backend &amp; Data Systems</text>

    <!-- tag chips -->
    <g font-family="Segoe UI, Inter, system-ui, -apple-system, Arial" font-size="14" font-weight="700" letter-spacing="0.2">
      <rect x="96" y="196" width="104" height="30" rx="15" fill="rgba(34,211,238,0.16)" stroke="rgba(110,231,245,0.26)"/>
      <text x="120" y="217" fill="#ECFEFF">5+ yrs</text>

      <rect x="210" y="196" width="152" height="30" rx="15" fill="rgba(124,58,237,0.16)" stroke="rgba(167,139,250,0.26)"/>
      <text x="234" y="217" fill="#F5F3FF">Microservices</text>

      <rect x="372" y="196" width="170" height="30" rx="15" fill="rgba(255,255,255,0.08)" stroke="rgba(255,255,255,0.14)"/>
      <text x="396" y="217" fill="#E5E7EB">SQL performance</text>

      <rect x="552" y="196" width="104" height="30" rx="15" fill="rgba(255,255,255,0.08)" stroke="rgba(255,255,255,0.14)"/>
      <text x="580" y="217" fill="#E5E7EB">AWS</text>
    </g>

    <!-- impact line -->
    <g font-family="Segoe UI, Inter, system-ui, -apple-system, Arial" font-size="16" font-weight="600" fill="#E5E7EB" opacity="0.95">
      <text x="96" y="260">40% fewer crashes</text>
      <text x="246" y="260" fill="#9CA3AF">•</text>
      <text x="262" y="260">Payroll -7 days</text>
      <text x="394" y="260" fill="#9CA3AF">•</text>
      <text x="410" y="260">SQL minutes → seconds</text>
    </g>
  </g>

  <!-- right terminal panel -->
  <g filter="url(#softShadow)">
    <rect x="748" y="80" width="388" height="202" rx="18" fill="rgba(255,255,255,0.04)" stroke="rgba(255,255,255,0.10)"/>
    <rect x="748" y="80" width="388" height="44" rx="18" fill="rgba(255,255,255,0.06)"/>

    <circle cx="774" cy="102" r="6" fill="#EF4444"/>
    <circle cx="794" cy="102" r="6" fill="#F59E0B"/>
    <circle cx="814" cy="102" r="6" fill="#10B981"/>

    <g font-family="Consolas, ui-monospace, SFMono-Regular, Menlo, Monaco, monospace" font-size="14" opacity="0.95">
      <text x="774" y="154" fill="#A5B4FC">$</text>
      <text x="790" y="154" fill="#E5E7EB">dotnet</text>
      <text x="842" y="154" fill="#22D3EE">build</text>

      <text x="774" y="182" fill="#10B981">✔</text>
      <text x="794" y="182" fill="#E5E7EB">Build succeeded</text>

      <text x="774" y="210" fill="#A5B4FC">$</text>
      <text x="790" y="210" fill="#E5E7EB">sql</text>
      <text x="822" y="210" fill="#22D3EE">optimize</text>

      <text x="774" y="238" fill="#22D3EE">→</text>
      <text x="794" y="238" fill="#E5E7EB">queries: minutes</text>
      <text x="936" y="238" fill="#9CA3AF">→</text>
      <text x="954" y="238" fill="#10B981">seconds</text>
    </g>

    <!-- cursor (blink) -->
    <rect x="1008" y="200" width="8" height="18" rx="2" fill="#22D3EE" opacity="0.6">
      <animate attributeName="opacity" values="0;0.75;0" dur="1.15s" repeatCount="indefinite"/>
    </rect>
  </g>

  <!-- small code brackets on far right -->
  <g opacity="0.9">
    <animate attributeName="opacity" values="0.65;0.95;0.65" dur="3.2s" repeatCount="indefinite"/>
    <path d="M1094 304L1060 318L1094 332" stroke="url(#accent2)" stroke-width="7" stroke-linecap="round" stroke-linejoin="round"/>
    <path d="M1144 304L1178 318L1144 332" stroke="url(#accent2)" stroke-width="7" stroke-linecap="round" stroke-linejoin="round"/>
    <path d="M1112 342L1126 294" stroke="#E5E7EB" stroke-opacity="0.65" stroke-width="7" stroke-linecap="round"/>
  </g>
</svg>
