<?xml version="1.0" encoding="UTF-8"?>
<svg xmlns="http://www.w3.org/2000/svg" width="24" height="24" viewBox="0 0 24 24" fill="none" role="img" aria-label="briefcase">
  <defs>
    <linearGradient id="g" x1="3" y1="3" x2="21" y2="21" gradientUnits="userSpaceOnUse">
      <stop stop-color="#22D3EE"/>
      <stop offset="1" stop-color="#7C3AED"/>
    </linearGradient>
  </defs>
  <path d="M9 7V5.8A2.8 2.8 0 0 1 11.8 3h.4A2.8 2.8 0 0 1 15 5.8V7" stroke="url(#g)" stroke-width="2" stroke-linecap="round"/>
  <path d="M4 7h16a2 2 0 0 1 2 2v9a3 3 0 0 1-3 3H5a3 3 0 0 1-3-3V9a2 2 0 0 1 2-2z" stroke="url(#g)" stroke-width="2"/>
  <path d="M9.5 12h5" stroke="url(#g)" stroke-width="2" stroke-linecap="round" opacity="0.9"/>
</svg>
