<?xml version="1.0" encoding="UTF-8"?>
<svg xmlns="http://www.w3.org/2000/svg" width="24" height="24" viewBox="0 0 24 24" fill="none" role="img" aria-label="github">
  <defs>
    <linearGradient id="g" x1="3" y1="3" x2="21" y2="21" gradientUnits="userSpaceOnUse">
      <stop stop-color="#22D3EE"/>
      <stop offset="1" stop-color="#7C3AED"/>
    </linearGradient>
  </defs>
  <path d="M12 2.5c-5.2 0-9.5 4.3-9.5 9.6 0 4.2 2.7 7.7 6.5 9 .5.1.7-.2.7-.5v-1.9c-2.7.6-3.3-1.2-3.3-1.2-.4-1.1-1.1-1.4-1.1-1.4-.9-.6.1-.6.1-.6 1 .1 1.6 1 1.6 1 .9 1.6 2.4 1.1 3 .8.1-.7.4-1.1.7-1.4-2.2-.3-4.5-1.1-4.5-5 0-1.1.4-2 1-2.7-.1-.3-.4-1.3.1-2.7 0 0 .8-.3 2.7 1a9 9 0 0 1 5 0c1.9-1.3 2.7-1 2.7-1 .5 1.4.2 2.4.1 2.7.6.7 1 1.6 1 2.7 0 3.9-2.3 4.7-4.5 5 .4.3.7.9.7 1.8v2.6c0 .3.2.6.7.5 3.8-1.3 6.5-4.8 6.5-9C21.5 6.8 17.2 2.5 12 2.5z" fill="url(#g)" fill-opacity="0.95"/>
</svg>
